<?xml version="1.0" encoding="utf-8"?>
<!-- Generator: Adobe Illustrator 16.0.0, SVG Export Plug-In . SVG Version: 6.00 Build 0)  -->
<!DOCTYPE svg PUBLIC "-//W3C//DTD SVG 1.1//EN" "http://www.w3.org/Graphics/SVG/1.1/DTD/svg11.dtd">
<svg version="1.1" id="Layer_1" xmlns="http://www.w3.org/2000/svg" xmlns:xlink="http://www.w3.org/1999/xlink" x="0px" y="0px"
	 width="1600px" height="900px" viewBox="0 0 1600 900" enable-background="new 0 0 1600 900" xml:space="preserve">
<title>White Vector SVG</title>
<polygon fill="#231F20" points="743.111,381.429 766.223,381.429 766.223,298.889 797.46,298.889 797.46,279.333 712.127,279.333 
	712.127,298.889 743.111,298.889 "/>
<polygon fill="#231F20" points="832.762,341.048 878.984,341.048 878.984,381.429 902.096,381.429 902.096,279.333 878.984,279.333 
	878.984,321.746 832.762,321.746 832.762,279.333 809.904,279.333 809.904,381.429 832.762,381.429 "/>
<polygon fill="#231F20" points="1003.937,362.381 947.556,362.381 947.556,339.777 996.825,339.777 996.825,320.477 
	947.556,320.477 947.556,298.381 1002.158,298.381 1002.158,279.333 924.444,279.333 924.444,381.429 1003.937,381.429 "/>
<path fill="#231F20" d="M806.35,433.238c0-22.604-14.984-35.556-40.89-35.556h-43.429v102.095h23.111v-29.206h20.317
	C791.365,470.825,806.35,457.111,806.35,433.238z M764.19,451.523h-19.048V416.73h19.048c12.952,0,20.063,5.587,20.063,17.016
	S777.143,451.523,764.19,451.523z"/>
<path fill="#231F20" d="M909.969,499.777L888.127,466c12.444-5.841,19.048-17.27,19.048-33.016
	c0-22.604-15.238-35.556-41.905-35.556h-44.19v102.095h23.111v-28.952h23.365l16.254,29.206H909.969z M865.27,451.523h-21.333
	v-34.539h21.333c12.699,0,20.063,5.587,20.063,17.016S877.969,451.523,865.27,451.523z"/>
<polygon fill="#231F20" points="1004.444,416.984 1004.444,397.683 926.477,397.683 926.477,499.777 1005.969,499.777 
	1005.969,480.73 949.588,480.73 949.588,458.127 998.857,458.127 998.857,439.079 949.588,439.079 949.588,416.984 "/>
<path fill="#231F20" d="M1121.016,448.73c0-30.223-22.095-51.048-53.587-51.048h-43.175v102.095h42.413
	C1098.667,499.777,1121.016,478.952,1121.016,448.73z M1047.111,417.238h19.81c17.523,0,30.729,12.952,30.729,31.746
	c0,18.793-12.444,31.492-29.714,31.492h-20.825V417.238z"/>
<rect x="1136.254" y="397.683" fill="#231F20" width="23.111" height="102.095"/>
<path fill="#231F20" d="M1229.206,479.969c-17.393,0-31.491-14.1-31.491-31.492s14.099-31.492,31.491-31.492
	c9.397,0,19.556,5.333,26.667,13.206l13.46-16.254c-10.702-10.725-25.229-16.754-40.381-16.762
	c-30.983,0-54.349,22.095-54.349,51.556c0,29.46,23.111,52.317,53.587,52.317c15.6-0.387,30.403-6.966,41.143-18.286l-13.46-14.729
	C1248.834,475.269,1239.293,479.539,1229.206,479.969z"/>
<polygon fill="#231F20" points="1272.889,417.238 1303.873,417.238 1303.873,499.777 1326.984,499.777 1326.984,417.238 
	1358.223,417.238 1358.223,397.683 1272.889,397.683 "/>
<rect x="1370.667" y="397.683" fill="#231F20" width="23.11" height="102.095"/>
<polygon fill="#231F20" points="1457.777,474.889 1429.842,397.683 1404.952,397.683 1445.079,499.777 1468.952,499.777 
	1509.333,397.683 1485.715,397.683 "/>
<polygon fill="#231F20" points="1543.619,480.73 1543.619,458.127 1593.143,458.127 1593.143,439.079 1543.619,439.079 
	1543.619,416.984 1598.477,416.984 1598.477,397.683 1520.762,397.683 1520.762,499.777 1600,499.777 1600,480.73 "/>
<rect x="722.031" y="516.286" fill="#231F20" width="23.111" height="102.095"/>
<polygon fill="#231F20" points="838.35,581.81 788.825,516.286 767.746,516.286 767.746,618.381 789.842,618.381 789.842,552.857 
	839.365,618.381 860.19,618.381 860.19,516.286 838.35,516.286 "/>
<path fill="#231F20" d="M925.969,516.286H882.54v102.095h42.666c32.254,0,54.604-20.825,54.604-51.048
	C979.81,537.111,957.715,516.286,925.969,516.286z M926.477,599.079H905.65v-63.238h19.81c17.524,0,30.73,12.953,30.73,31.746
	C956.19,586.381,943.746,599.079,926.477,599.079L926.477,599.079z"/>
<polygon fill="#231F20" points="1017.904,576.73 1067.175,576.73 1067.175,557.683 1017.904,557.683 1017.904,535.333 
	1072.508,535.333 1072.508,516.286 994.794,516.286 994.794,618.381 1074.286,618.381 1074.286,599.333 1017.904,599.333 "/>
<polygon fill="#231F20" points="1181.461,516.286 1154.286,516.286 1132.698,547.523 1111.619,516.286 1084.698,516.286 
	1118.73,566.063 1082.159,618.381 1109.079,618.381 1132.698,584.35 1156.825,618.381 1184.508,618.381 1147.429,565.048 "/>
<path fill="#FFFFFF" d="M569.396,603.904c0-2.793-1.016-3.301-4.317-3.301h-1.27v6.349h1.016
	C567.873,607.206,569.396,606.698,569.396,603.904z"/>
<path fill="#ED1C24" d="M250.667,317.683h-7.873l-24.127,0.254v147.81l30.477,1.777c4.317,0.254,8.635,0.254,12.698,0.254
	c30.476,0,49.778-7.11,60.953-22.095l0,0c9.65-13.206,13.968-32.254,13.968-64.254C336.762,338.254,328.127,317.683,250.667,317.683
	z"/>
<path fill="#FFFFFF" d="M565.333,595.27c-6.312,0.141-11.314,5.371-11.174,11.683c0.14,6.312,5.37,11.315,11.683,11.175h0.254
	c6.147-0.193,11.006-5.278,10.92-11.429v-0.254C576.809,600.162,571.619,595.197,565.333,595.27z M572.698,613.81h-3.81
	l-3.302-5.333c-0.508,0-1.27-0.254-2.031-0.254v4.063c0.762,0,1.016,0.254,2.031,0.254v1.27h-6.095v-1.27
	c0.568-0.209,1.174-0.295,1.777-0.254v-11.683c-0.508,0-1.27-0.254-1.777-0.254c-0.04-0.439,0.049-0.88,0.254-1.271h5.841
	c4.063,0,6.35,0.254,6.35,4.825v0.255c0.171,2.068-1.367,3.884-3.437,4.055c-0.039,0.004-0.079,0.007-0.119,0.009l2.794,4.063
	l1.777,0.254C572.769,612.937,572.682,613.372,572.698,613.81L572.698,613.81z"/>
<path fill="#ED1C24" d="M336.254,113.746C150.546,113.746,0,264.292,0,450s150.546,336.254,336.254,336.254
	S672.508,635.708,672.508,450C672.466,264.31,521.944,113.788,336.254,113.746z M414.984,283.397l1.523-2.794h120.635l3.556,28.191
	l-4.063,1.523c-11.604,3.642-23.499,6.275-35.556,7.873v87.365c-15.905-9.669-35.942-9.373-51.556,0.762v-88.381l-35.555-6.604
	l-1.271-2.793c-0.939-3.646-1.282-7.419-1.016-11.175C411.504,292.497,412.645,287.67,414.984,283.397z M508.19,447.46
	c0,17.954-14.555,32.509-32.508,32.509c-17.954,0-32.508-14.555-32.508-32.509c0-17.953,14.554-32.508,32.508-32.508
	c17.897-0.056,32.452,14.407,32.508,32.305C508.19,447.324,508.19,447.393,508.19,447.46L508.19,447.46z M269.207,506.127
	c-16.938-0.251-33.833-1.779-50.54-4.571v80.762c4.063,0.508,9.143,1.016,14.222,1.524c12.445,1.27,26.413,2.539,34.032,4.063
	l3.809,0.762l0.762,3.81c1.27,7.48,1.27,15.122,0,22.603l-0.762,4.571H130.793l-2.032-31.745l4.826-1.017
	c8.393-1.599,16.874-2.701,25.397-3.302l8.127-0.762v-265.65c-11.175-1.524-21.333-3.048-32-5.334l-4.063-0.762l-0.254-4.063
	c-0.381-7.491,0.653-14.987,3.047-22.095l1.27-3.81h139.174c40.381,0,67.81,7.111,86.603,22.603
	c20.318,16.762,30.223,43.936,30.223,83.047C390.603,471.333,355.302,506.127,269.207,506.127z M543.492,601.111
	c-0.066,5.331-1.188,10.597-3.302,15.492l-1.523,2.793H411.175l-3.048-29.714l4.063-1.523c10.921-3.81,24.889-5.334,37.079-6.857
	v-92.698c15.611,10.141,35.652,10.437,51.556,0.762v92.19l40.381,7.365l1.017,2.793
	C543.265,594.731,543.696,597.926,543.492,601.111z M565.842,620.413c-7.574,0-13.715-6.141-13.715-13.715
	s6.141-13.714,13.715-13.714l0,0h0.254c7.41,0.055,13.404,6.049,13.46,13.46l0,0C579.517,614.044,573.439,620.234,565.842,620.413z"
	/>
</svg>
